<svg width="380" height="240" role="img" aria-label="Bullet chart: CPU 45, target 80; Memory 67, target 70; Disk 88, target 100" xmlns="http://www.w3.org/2000/svg" viewBox="0 0 380 240" style="font-family: -apple-system, BlinkMacSystemFont, &quot;Segoe UI&quot;, Roboto, Helvetica, Arial, sans-serif;"><rect width="380" height="240" fill="#1f1f1f"></rect><g class="col" transform="translate(100, 0)" data-row-index="0"><title>CPU (%) = 45 target 80 bands: 0–30 / 30–60 / 60–80 / 80–100</title><text class="col-title" x="22" y="25" text-anchor="middle" fill="#e8eaed" style="font-size: 13px; font-weight: 600;">CPU</text><text class="col-subtitle" x="22" y="38" text-anchor="middle" fill="#9aa0a6" style="font-size: 11px;">%</text><g class="bands"><rect x="0" width="44" y="158.79999999999998" height="49.20000000000002" fill="#0f9d58" opacity="0.9"></rect><rect x="0" width="44" y="109.6" height="49.19999999999999" fill="#ffd54f" opacity="0.9"></rect><rect x="0" width="44" y="76.8" height="32.8" fill="#ff6d00" opacity="0.9"></rect><rect x="0" width="44" y="44" height="32.8" fill="#db4437" opacity="0.9"></rect></g><rect class="bar" x="15" width="15" fill="#e8eaed" opacity="1" y="134.20000000000002" height="73.79999999999998"></rect><g class="target"><polygon opacity="1" points="55,72.3 55,81.3 46,76.8" fill="#e8eaed"></polygon></g><text class="value" opacity="0"></text><g class="axis" transform="translate(48, 0)" style="font-size: 10px;" fill="none" font-size="10" font-family="sans-serif" text-anchor="start"><path class="domain" d="M0.5,208.5V44.5"></path><g class="tick" opacity="1" transform="translate(0,208.5)"><line x2="6"></line><text x="9" dy="0.32em">0</text></g><g class="tick" opacity="1" transform="translate(0,175.70000000000002)"><line x2="6"></line><text x="9" dy="0.32em">20</text></g><g class="tick" opacity="1" transform="translate(0,142.9)"><line x2="6"></line><text x="9" dy="0.32em">40</text></g><g class="tick" opacity="1" transform="translate(0,110.1)"><line x2="6"></line><text x="9" dy="0.32em">60</text></g><g class="tick" opacity="1" transform="translate(0,77.3)"><line x2="6"></line><text x="9" dy="0.32em">80</text></g><g class="tick" opacity="1" transform="translate(0,44.5)"><line x2="6"></line><text x="9" dy="0.32em">100</text></g></g></g><g class="col" transform="translate(168, 0)" data-row-index="1"><title>Memory (%) = 67 target 70 bands: 0–30 / 30–60 / 60–80 / 80–100</title><text class="col-title" x="22" y="25" text-anchor="middle" fill="#e8eaed" style="font-size: 13px; font-weight: 600;">Memory</text><text class="col-subtitle" x="22" y="38" text-anchor="middle" fill="#9aa0a6" style="font-size: 11px;">%</text><g class="bands"><rect x="0" width="44" y="158.79999999999998" height="49.20000000000002" fill="#0f9d58" opacity="0.9"></rect><rect x="0" width="44" y="109.6" height="49.19999999999999" fill="#ffd54f" opacity="0.9"></rect><rect x="0" width="44" y="76.8" height="32.8" fill="#ff6d00" opacity="0.9"></rect><rect x="0" width="44" y="44" height="32.8" fill="#db4437" opacity="0.9"></rect></g><rect class="bar" x="15" width="15" fill="#e8eaed" opacity="1" y="98.11999999999999" height="109.88000000000001"></rect><g class="target"><polygon opacity="1" points="55,88.7 55,97.7 46,93.2" fill="#e8eaed"></polygon></g><text class="value" opacity="0"></text><g class="axis" transform="translate(48, 0)" style="font-size: 10px;" fill="none" font-size="10" font-family="sans-serif" text-anchor="start"><path class="domain" d="M0.5,208.5V44.5"></path><g class="tick" opacity="1" transform="translate(0,208.5)"><line x2="6"></line><text x="9" dy="0.32em">0</text></g><g class="tick" opacity="1" transform="translate(0,175.70000000000002)"><line x2="6"></line><text x="9" dy="0.32em">20</text></g><g class="tick" opacity="1" transform="translate(0,142.9)"><line x2="6"></line><text x="9" dy="0.32em">40</text></g><g class="tick" opacity="1" transform="translate(0,110.1)"><line x2="6"></line><text x="9" dy="0.32em">60</text></g><g class="tick" opacity="1" transform="translate(0,77.3)"><line x2="6"></line><text x="9" dy="0.32em">80</text></g><g class="tick" opacity="1" transform="translate(0,44.5)"><line x2="6"></line><text x="9" dy="0.32em">100</text></g></g></g><g class="col" transform="translate(236, 0)" data-row-index="2"><title>Disk (MB/s) = 88 target 100 bands: 0–60 / 60–120 / 120–180 / 180–200</title><text class="col-title" x="22" y="25" text-anchor="middle" fill="#e8eaed" style="font-size: 13px; font-weight: 600;">Disk</text><text class="col-subtitle" x="22" y="38" text-anchor="middle" fill="#9aa0a6" style="font-size: 11px;">MB/s</text><g class="bands"><rect x="0" width="44" y="158.79999999999998" height="49.20000000000002" fill="#0f9d58" opacity="0.9"></rect><rect x="0" width="44" y="109.6" height="49.19999999999999" fill="#ffd54f" opacity="0.9"></rect><rect x="0" width="44" y="60.4" height="49.199999999999996" fill="#ff6d00" opacity="0.9"></rect><rect x="0" width="44" y="44" height="16.4" fill="#db4437" opacity="0.9"></rect></g><rect class="bar" x="15" width="15" fill="#e8eaed" opacity="1" y="135.84000000000003" height="72.15999999999997"></rect><g class="target"><polygon opacity="1" points="55,121.5 55,130.5 46,126" fill="#e8eaed"></polygon></g><text class="value" opacity="0"></text><g class="axis" transform="translate(48, 0)" style="font-size: 10px;" fill="none" font-size="10" font-family="sans-serif" text-anchor="start"><path class="domain" d="M0.5,208.5V44.5"></path><g class="tick" opacity="1" transform="translate(0,208.5)"><line x2="6"></line><text x="9" dy="0.32em">0</text></g><g class="tick" opacity="1" transform="translate(0,167.5)"><line x2="6"></line><text x="9" dy="0.32em">50</text></g><g class="tick" opacity="1" transform="translate(0,126.5)"><line x2="6"></line><text x="9" dy="0.32em">100</text></g><g class="tick" opacity="1" transform="translate(0,85.5)"><line x2="6"></line><text x="9" dy="0.32em">150</text></g><g class="tick" opacity="1" transform="translate(0,44.5)"><line x2="6"></line><text x="9" dy="0.32em">200</text></g></g></g></svg>