<svg width="680" height="140" role="img" aria-label="Bullet chart: Error rate 13, target 10; p95 latency 215, target 200" xmlns="http://www.w3.org/2000/svg" viewBox="0 0 680 140" style="font-family: -apple-system, BlinkMacSystemFont, &quot;Segoe UI&quot;, Roboto, Helvetica, Arial, sans-serif;"><rect width="680" height="140" fill="#1f1f1f"></rect><g class="row" transform="translate(0, 12)" data-row-index="0"><title>Error rate (errors / hour) = 13 target 10 bands: 0–5 / 5–20 / 20–50</title><foreignObject class="row-icon" width="0" height="0"></foreignObject><text class="row-title" x="142" y="15" text-anchor="end" dy="0em" fill="#e8eaed" style="font-size: 13px; font-weight: 600;">Error rate</text><text class="row-subtitle" x="142" y="28" text-anchor="end" dy="0em" fill="#9aa0a6" style="font-size: 11px;">errors / hour</text><g class="bands"><rect x="154" y="0" width="51.39999999999998" height="34" fill="#0f9d58" opacity="0.9"></rect><rect x="205.39999999999998" y="0" width="154.2" height="34" fill="#f4b400" opacity="0.9"></rect><rect x="359.59999999999997" y="0" width="308.40000000000003" height="34" fill="#db4437" opacity="0.9"></rect></g><rect class="bar" y="12" height="11" fill="#e8eaed" x="154" opacity="1" width="133.64"></rect><g class="target"><polygon opacity="1" points="252.3,45 261.3,45 256.8,36" fill="#e8eaed"></polygon></g><text class="value" opacity="0"></text><g class="axis" transform="translate(0, 34)" style="font-size: 10px;" fill="none" font-size="10" font-family="sans-serif" text-anchor="middle"><path class="domain" d="M154.5,0.5H668.5"></path><g class="tick" opacity="1" transform="translate(154.5,0)"><line y2="6"></line><text y="9" dy="0.71em">0</text></g><g class="tick" opacity="1" transform="translate(257.3,0)"><line y2="6"></line><text y="9" dy="0.71em">10</text></g><g class="tick" opacity="1" transform="translate(360.09999999999997,0)"><line y2="6"></line><text y="9" dy="0.71em">20</text></g><g class="tick" opacity="1" transform="translate(462.90000000000003,0)"><line y2="6"></line><text y="9" dy="0.71em">30</text></g><g class="tick" opacity="1" transform="translate(565.6999999999999,0)"><line y2="6"></line><text y="9" dy="0.71em">40</text></g><g class="tick" opacity="1" transform="translate(668.5,0)"><line y2="6"></line><text y="9" dy="0.71em">50</text></g></g></g><g class="row" transform="translate(0, 76)" data-row-index="1"><title>p95 latency (milliseconds) = 215 target 200 bands: 0–100 / 100–250 / 250–500</title><foreignObject class="row-icon" width="0" height="0"></foreignObject><text class="row-title" x="142" y="15" text-anchor="end" dy="0em" fill="#e8eaed" style="font-size: 13px; font-weight: 600;">p95 latency</text><text class="row-subtitle" x="142" y="28" text-anchor="end" dy="0em" fill="#9aa0a6" style="font-size: 11px;">milliseconds</text><g class="bands"><rect x="154" y="0" width="102.80000000000001" height="34" fill="#0f9d58" opacity="0.9"></rect><rect x="256.8" y="0" width="154.2" height="34" fill="#f4b400" opacity="0.9"></rect><rect x="411" y="0" width="257" height="34" fill="#db4437" opacity="0.9"></rect></g><rect class="bar" y="12" height="11" fill="#e8eaed" x="154" opacity="1" width="221.02000000000004"></rect><g class="target"><polygon opacity="1" points="355.09999999999997,45 364.09999999999997,45 359.59999999999997,36" fill="#e8eaed"></polygon></g><text class="value" opacity="0"></text><g class="axis" transform="translate(0, 34)" style="font-size: 10px;" fill="none" font-size="10" font-family="sans-serif" text-anchor="middle"><path class="domain" d="M154.5,0.5H668.5"></path><g class="tick" opacity="1" transform="translate(154.5,0)"><line y2="6"></line><text y="9" dy="0.71em">0</text></g><g class="tick" opacity="1" transform="translate(257.3,0)"><line y2="6"></line><text y="9" dy="0.71em">100</text></g><g class="tick" opacity="1" transform="translate(360.09999999999997,0)"><line y2="6"></line><text y="9" dy="0.71em">200</text></g><g class="tick" opacity="1" transform="translate(462.90000000000003,0)"><line y2="6"></line><text y="9" dy="0.71em">300</text></g><g class="tick" opacity="1" transform="translate(565.6999999999999,0)"><line y2="6"></line><text y="9" dy="0.71em">400</text></g><g class="tick" opacity="1" transform="translate(668.5,0)"><line y2="6"></line><text y="9" dy="0.71em">500</text></g></g></g></svg>