<svg width="680" height="204" role="img" aria-label="Bullet chart: Energy 62, target 80; Water 135, target 150; Temperature 23, target 21" xmlns="http://www.w3.org/2000/svg" viewBox="0 0 680 204" style="font-family: -apple-system, BlinkMacSystemFont, &quot;Segoe UI&quot;, Roboto, Helvetica, Arial, sans-serif;"><rect width="680" height="204" fill="#ffffff"></rect><g class="row" transform="translate(0, 12)" data-row-index="0"><title>Energy (kWh, today) = 62 target 80 bands: 0–40 / 40–75 / 75–100</title><foreignObject class="row-icon" width="0" height="0"></foreignObject><text class="row-title" x="142" y="15" text-anchor="end" dy="0em" fill="var(--primary-text-color, #212121)" style="font-size: 13px; font-weight: 600;">Energy</text><text class="row-subtitle" x="142" y="28" text-anchor="end" dy="0em" fill="var(--secondary-text-color, #5f6368)" style="font-size: 11px;">kWh, today</text><g class="bands"><rect x="154" y="0" width="205.59999999999997" height="34" fill="#f5f5f5" opacity="0.9"></rect><rect x="359.59999999999997" y="0" width="179.90000000000003" height="34" fill="#a3a3a3" opacity="0.9"></rect><rect x="539.5" y="0" width="128.5" height="34" fill="#505050" opacity="0.9"></rect></g><rect class="bar" y="12" height="11" fill="var(--primary-text-color, #212121)" x="154" opacity="1" width="318.68"></rect><g class="target"><polygon opacity="1" points="560.6999999999999,45 569.6999999999999,45 565.1999999999999,36" fill="var(--primary-text-color, #212121)"></polygon></g><text class="value" opacity="0"></text><g class="axis" transform="translate(0, 34)" style="font-size: 10px;" fill="none" font-size="10" font-family="sans-serif" text-anchor="middle"><path class="domain" d="M154.5,0.5H668.5"></path><g class="tick" opacity="1" transform="translate(154.5,0)"><line y2="6"></line><text y="9" dy="0.71em">0</text></g><g class="tick" opacity="1" transform="translate(257.3,0)"><line y2="6"></line><text y="9" dy="0.71em">20</text></g><g class="tick" opacity="1" transform="translate(360.09999999999997,0)"><line y2="6"></line><text y="9" dy="0.71em">40</text></g><g class="tick" opacity="1" transform="translate(462.90000000000003,0)"><line y2="6"></line><text y="9" dy="0.71em">60</text></g><g class="tick" opacity="1" transform="translate(565.6999999999999,0)"><line y2="6"></line><text y="9" dy="0.71em">80</text></g><g class="tick" opacity="1" transform="translate(668.5,0)"><line y2="6"></line><text y="9" dy="0.71em">100</text></g></g></g><g class="row" transform="translate(0, 76)" data-row-index="1"><title>Water (litres, today) = 135 target 150 bands: 0–80 / 80–150 / 150–200</title><foreignObject class="row-icon" width="0" height="0"></foreignObject><text class="row-title" x="142" y="15" text-anchor="end" dy="0em" fill="var(--primary-text-color, #212121)" style="font-size: 13px; font-weight: 600;">Water</text><text class="row-subtitle" x="142" y="28" text-anchor="end" dy="0em" fill="var(--secondary-text-color, #5f6368)" style="font-size: 11px;">litres, today</text><g class="bands"><rect x="154" y="0" width="205.59999999999997" height="34" fill="#f5f5f5" opacity="0.9"></rect><rect x="359.59999999999997" y="0" width="179.90000000000003" height="34" fill="#a3a3a3" opacity="0.9"></rect><rect x="539.5" y="0" width="128.5" height="34" fill="#505050" opacity="0.9"></rect></g><rect class="bar" y="12" height="11" fill="var(--primary-text-color, #212121)" x="154" opacity="1" width="346.95000000000005"></rect><g class="target"><polygon opacity="1" points="535,45 544,45 539.5,36" fill="var(--primary-text-color, #212121)"></polygon></g><text class="value" opacity="0"></text><g class="axis" transform="translate(0, 34)" style="font-size: 10px;" fill="none" font-size="10" font-family="sans-serif" text-anchor="middle"><path class="domain" d="M154.5,0.5H668.5"></path><g class="tick" opacity="1" transform="translate(154.5,0)"><line y2="6"></line><text y="9" dy="0.71em">0</text></g><g class="tick" opacity="1" transform="translate(283,0)"><line y2="6"></line><text y="9" dy="0.71em">50</text></g><g class="tick" opacity="1" transform="translate(411.5,0)"><line y2="6"></line><text y="9" dy="0.71em">100</text></g><g class="tick" opacity="1" transform="translate(540,0)"><line y2="6"></line><text y="9" dy="0.71em">150</text></g><g class="tick" opacity="1" transform="translate(668.5,0)"><line y2="6"></line><text y="9" dy="0.71em">200</text></g></g></g><g class="row" transform="translate(0, 140)" data-row-index="2"><title>Temperature (°C, set-point 21) = 23 target 21 bands: 10–18 / 18–23 / 23–30</title><foreignObject class="row-icon" width="0" height="0"></foreignObject><text class="row-title" x="142" y="15" text-anchor="end" dy="0em" fill="var(--primary-text-color, #212121)" style="font-size: 13px; font-weight: 600;">Temperature</text><text class="row-subtitle" x="142" y="28" text-anchor="end" dy="0em" fill="var(--secondary-text-color, #5f6368)" style="font-size: 11px;">°C, set-point 21</text><g class="bands"><rect x="154" y="0" width="205.59999999999997" height="34" fill="#f5f5f5" opacity="0.9"></rect><rect x="359.59999999999997" y="0" width="128.5" height="34" fill="#a3a3a3" opacity="0.9"></rect><rect x="488.09999999999997" y="0" width="179.90000000000003" height="34" fill="#505050" opacity="0.9"></rect></g><rect class="bar" y="12" height="11" fill="var(--primary-text-color, #212121)" x="154" opacity="1" width="321.25"></rect><g class="target"><polygon opacity="1" points="432.20000000000005,45 441.20000000000005,45 436.70000000000005,36" fill="var(--primary-text-color, #212121)"></polygon></g><text class="value" opacity="0"></text><g class="axis" transform="translate(0, 34)" style="font-size: 10px;" fill="none" font-size="10" font-family="sans-serif" text-anchor="middle"><path class="domain" d="M154.5,0.5H668.5"></path><g class="tick" opacity="1" transform="translate(154.5,0)"><line y2="6"></line><text y="9" dy="0.71em">10</text></g><g class="tick" opacity="1" transform="translate(283,0)"><line y2="6"></line><text y="9" dy="0.71em">15</text></g><g class="tick" opacity="1" transform="translate(411.5,0)"><line y2="6"></line><text y="9" dy="0.71em">20</text></g><g class="tick" opacity="1" transform="translate(540,0)"><line y2="6"></line><text y="9" dy="0.71em">25</text></g><g class="tick" opacity="1" transform="translate(668.5,0)"><line y2="6"></line><text y="9" dy="0.71em">30</text></g></g></g></svg>